<svg width="65" height="65" viewBox="0 0 65 65" fill="none" xmlns="http://www.w3.org/2000/svg">
<path d="M63.8843 41.0798C59.9115 53.8094 51.4082 61.6197 38.3742 64.4428C37.3599 64.6626 36.3287 64.764 35.3144 64.8993C33.4886 64.8993 31.6797 64.8993 29.8709 64.8993C27.9268 64.6626 25.9827 64.3752 24.0893 63.868C11.9344 60.6053 2.70414 50.5467 0.506461 38.1552C-2.41815 21.7233 7.58976 5.71398 23.6498 1.14956C25.6784 0.574779 27.7746 0.236674 29.8709 0C31.6459 0 33.421 0 35.196 0C37.157 0.236674 39.135 0.490252 41.0453 1.06503C53.5213 4.86871 61.2977 13.1354 64.3914 25.7974C64.6957 27.0653 64.7971 28.3839 65 29.6687C65 31.5283 65 33.3879 65 35.2475C64.7126 37.2085 64.4759 39.1864 63.8843 41.0798ZM4.20871 32.4412C4.19181 48.1124 16.7186 60.7575 32.5081 60.7744C48.1793 60.7913 60.8244 48.2476 60.8413 32.475C60.8582 16.8038 48.3314 4.27703 32.5419 4.10798C16.8707 4.24322 4.22562 16.6517 4.20871 32.4412Z" fill="white"/>
<path d="M26.6926 14.1498C25.6276 14.1667 24.9852 14.5048 24.5964 15.2486C24.2075 16.0093 24.2583 16.7701 24.7654 17.4632C24.9514 17.7168 25.1881 17.9365 25.4078 18.1563C29.9553 22.7038 34.4859 27.2344 39.0335 31.7819C39.6928 32.4412 39.6928 32.4412 39.0165 33.1174C34.4352 37.6988 29.837 42.297 25.2557 46.8783C24.7654 47.3686 24.3597 47.8926 24.3597 48.6365C24.3597 49.4986 24.7147 50.1579 25.4923 50.5299C26.2531 50.9018 27.0138 50.8342 27.7069 50.327C27.9267 50.1749 28.1127 49.972 28.3155 49.7691C33.4716 44.613 38.6277 39.4569 43.7838 34.3008C45.1193 32.9653 45.1193 31.9003 43.7669 30.5478C38.5939 25.3748 33.4209 20.2018 28.2648 15.0288C27.7576 14.5555 27.2167 14.1328 26.6926 14.1498Z" fill="white"/>
</svg>
