<svg width="65" height="65" viewBox="0 0 65 65" fill="none" xmlns="http://www.w3.org/2000/svg">
<path d="M1.11575 41.0798C5.08848 53.8094 13.5918 61.6197 26.6258 64.4428C27.6401 64.6626 28.6713 64.764 29.6856 64.8993C31.5114 64.8993 33.3203 64.8993 35.1291 64.8993C37.0732 64.6626 39.0173 64.3752 40.9107 63.868C53.0656 60.6053 62.2959 50.5467 64.4935 38.1552C67.4181 21.7233 57.4102 5.71398 41.3502 1.14956C39.3216 0.574779 37.2254 0.236674 35.1291 0C33.3541 0 31.579 0 29.804 0C27.843 0.236674 25.865 0.490252 23.9547 1.06503C11.4787 4.86871 3.70225 13.1354 0.608589 25.7974C0.304298 27.0653 0.202866 28.3839 0 29.6687C0 31.5283 0 33.3879 0 35.2475C0.287392 37.2085 0.524063 39.1864 1.11575 41.0798ZM60.7913 32.4412C60.8082 48.1124 48.2814 60.7575 32.4919 60.7744C16.8207 60.7913 4.1756 48.2476 4.15869 32.475C4.14179 16.8038 16.6686 4.27703 32.4581 4.10798C48.1293 4.24322 60.7744 16.6517 60.7913 32.4412Z" fill="white"/>
<path d="M38.3074 14.1498C39.3724 14.1667 40.0148 14.5048 40.4036 15.2486C40.7925 16.0093 40.7417 16.7701 40.2346 17.4632C40.0486 17.7168 39.8119 17.9365 39.5922 18.1563C35.0447 22.7038 30.5141 27.2344 25.9665 31.7819C25.3072 32.4412 25.3072 32.4412 25.9835 33.1174C30.5648 37.6988 35.163 42.297 39.7443 46.8783C40.2346 47.3686 40.6403 47.8926 40.6403 48.6365C40.6403 49.4986 40.2853 50.1579 39.5077 50.5299C38.7469 50.9018 37.9862 50.8342 37.2931 50.327C37.0733 50.1749 36.8873 49.972 36.6845 49.7691C31.5284 44.613 26.3723 39.4569 21.2162 34.3008C19.8807 32.9653 19.8807 31.9003 21.2331 30.5478C26.4061 25.3748 31.5791 20.2018 36.7352 15.0288C37.2424 14.5555 37.7833 14.1328 38.3074 14.1498Z" fill="white"/>
</svg>
