<svg width="311" height="90" viewBox="0 0 311 90" fill="none" xmlns="http://www.w3.org/2000/svg">
<mask id="mask0_2152_672" style="mask-type:luminance" maskUnits="userSpaceOnUse" x="0" y="0" width="311" height="90">
<path d="M311 0H0V89.6532H311V0Z" fill="white"/>
</mask>
<g mask="url(#mask0_2152_672)">
<path d="M138.38 82.471H90.0244V81.728C93.1821 81.728 95.7206 78.6322 95.7206 71.4501V17.5219C95.7206 10.3398 93.1821 7.24401 90.0244 7.24401V6.43912H109.156V7.24401C105.937 7.24401 103.336 10.3398 103.336 17.5219V71.4501C103.336 78.6322 105.875 81.728 109.156 81.728H122.22C126.307 81.728 130.207 80.1182 133.055 77.2701C135.965 74.422 137.575 70.5213 137.575 66.4349H138.38V82.471Z" fill="#FFFCFA"/>
</g>
<mask id="mask1_2152_672" style="mask-type:luminance" maskUnits="userSpaceOnUse" x="0" y="0" width="311" height="90">
<path d="M311 0H0V89.6532H311V0Z" fill="white"/>
</mask>
<g mask="url(#mask1_2152_672)">
<path d="M185.498 69.345C182.712 77.7654 174.601 82.5329 165.747 82.5329C151.259 82.5329 143.21 71.5739 143.21 58.0145C143.21 44.517 151.197 33.6199 165.499 33.4341H165.747C175.034 33.4341 183.764 38.2635 183.764 47.3651C183.764 62.6581 160.422 60.1815 152.311 66.3111C154.85 74.7316 160.98 79.8086 169.71 79.8086C176.644 79.8086 181.907 76.0937 185.188 69.0973L185.498 69.345ZM165.128 34.1771C156.707 34.3629 150.887 43.4644 150.887 56.4666C150.887 59.6243 151.259 62.72 152.002 65.7539C159.617 59.6243 176.582 61.977 176.582 46.8697C176.582 37.1491 170.7 34.1152 165.314 34.1152L165.128 34.1771Z" fill="#FFFCFA"/>
</g>
<mask id="mask2_2152_672" style="mask-type:luminance" maskUnits="userSpaceOnUse" x="0" y="0" width="311" height="90">
<path d="M311 0H0V89.6532H311V0Z" fill="white"/>
</mask>
<g mask="url(#mask2_2152_672)">
<path d="M236.764 82.471H188.408V81.728C191.566 81.728 194.104 78.6322 194.104 71.4501V17.5219C194.104 10.3398 191.566 7.24401 188.408 7.24401V6.43912H207.54V7.24401C204.32 7.24401 201.72 10.3398 201.72 17.5219V71.4501C201.72 78.6322 204.259 81.728 207.54 81.728H220.604C224.691 81.728 228.591 80.1182 231.439 77.2701C234.349 74.422 235.959 70.5213 235.959 66.4349H236.764V82.471Z" fill="#FFFCFA"/>
</g>
<mask id="mask3_2152_672" style="mask-type:luminance" maskUnits="userSpaceOnUse" x="0" y="0" width="311" height="90">
<path d="M311 0H0V89.6532H311V0Z" fill="white"/>
</mask>
<g mask="url(#mask3_2152_672)">
<path d="M241.469 82.471V81.728C244.627 81.728 247.165 78.6323 247.165 71.4501V44.5789C247.351 41.8546 246.794 39.1304 245.494 36.6538C244.689 35.1678 243.141 34.2391 241.469 34.1771V33.4342H254.843V71.4501C254.657 74.1744 255.276 76.8367 256.515 79.2514C257.32 80.7993 258.929 81.728 260.663 81.728V82.5329L241.469 82.471ZM250.695 24.5803C247.351 24.5803 244.627 21.856 244.627 18.5126C244.627 15.1692 247.351 12.4449 250.695 12.4449C254.038 12.4449 256.762 15.1692 256.762 18.5126C256.762 21.856 254.038 24.5184 250.695 24.5803Z" fill="#FFFCFA"/>
</g>
<mask id="mask4_2152_672" style="mask-type:luminance" maskUnits="userSpaceOnUse" x="0" y="0" width="311" height="90">
<path d="M311 0H0V89.6532H311V0Z" fill="white"/>
</mask>
<g mask="url(#mask4_2152_672)">
<path d="M301.96 69.3449C301.96 78.9418 291.249 83.2139 282.952 83.2139C276.699 83.0282 270.569 81.1088 265.369 77.5797V67.3637H266.173C267.35 74.422 272.427 82.4091 282.952 82.4091C283.014 82.4091 295.397 82.4091 295.397 73.2456C295.397 59.7481 265.121 59.6243 265.121 44.8884C265.121 35.725 274.718 32.5673 282.952 32.5673C289.02 32.6292 294.84 34.7963 299.422 38.7588V49.5321H298.617C298.06 42.7214 293.168 33.3722 282.952 33.3722C282.952 33.3722 271.374 33.558 271.374 41.3593C271.312 53.0613 301.96 55.1045 301.96 69.3449Z" fill="#FFFCFA"/>
</g>
<mask id="mask5_2152_672" style="mask-type:luminance" maskUnits="userSpaceOnUse" x="0" y="0" width="311" height="90">
<path d="M311 0H0V89.6532H311V0Z" fill="white"/>
</mask>
<g mask="url(#mask5_2152_672)">
<path d="M311 79.0657C311 80.9851 309.514 82.471 307.594 82.471C305.675 82.471 304.127 80.9851 304.127 79.0657C304.127 77.2083 305.675 75.7223 307.594 75.7223C309.514 75.7842 311 77.2702 311 79.0657ZM304.994 79.0657C304.994 80.5517 306.108 81.7281 307.594 81.7281C309.08 81.7281 310.133 80.5517 310.133 79.0657C310.133 77.5797 309.08 76.4034 307.594 76.4034C306.047 76.4034 304.994 77.6417 304.994 79.0657ZM307.037 80.8613H306.294V77.5178C306.604 77.4559 307.037 77.394 307.594 77.394C308.214 77.394 308.523 77.5178 308.771 77.6417C308.957 77.7655 309.08 78.0751 309.08 78.3846C309.08 78.7561 308.771 79.0657 308.399 79.1276V79.1895C308.709 79.3134 308.895 79.561 309.018 79.9944C309.142 80.4898 309.204 80.6755 309.266 80.7993H308.337C308.214 80.6755 308.152 80.3659 308.09 79.9944C308.028 79.6229 307.842 79.4372 307.409 79.4372H307.037V80.8613ZM307.037 78.9419H307.409C307.842 78.9419 308.152 78.818 308.152 78.4466C308.152 78.137 307.904 77.9512 307.471 77.9512C307.285 77.9512 307.099 77.9512 307.037 78.0132V78.9419Z" fill="#FFFCFA"/>
</g>
<mask id="mask6_2152_672" style="mask-type:luminance" maskUnits="userSpaceOnUse" x="0" y="0" width="311" height="90">
<path d="M311 0H0V89.6532H311V0Z" fill="white"/>
</mask>
<g mask="url(#mask6_2152_672)">
<path d="M29.1621 66.3111C29.1621 66.3111 35.3536 72.4407 42.2262 66.3111C49.0369 60.1196 22.4133 59.5624 29.1621 66.3111Z" fill="#FFFCFA"/>
</g>
<mask id="mask7_2152_672" style="mask-type:luminance" maskUnits="userSpaceOnUse" x="0" y="0" width="311" height="90">
<path d="M311 0H0V89.6532H311V0Z" fill="white"/>
</mask>
<g mask="url(#mask7_2152_672)">
<path d="M55.2901 74.0505C55.2901 71.8835 54.1756 70.026 52.5039 68.9115C51.7609 68.4162 50.956 68.1066 50.0273 67.9828H49.9654C49.5939 67.9828 49.3462 68.2924 49.3462 68.602C49.3462 68.7877 49.4081 68.9735 49.5939 69.0973C50.213 69.6545 50.6465 70.4594 50.6465 71.3882C50.6465 72.6265 49.9035 73.7409 48.8509 74.1743C48.7271 74.2363 48.6032 74.2982 48.4794 74.2982C47.8603 74.4839 47.2411 74.6077 46.622 74.6077C45.7552 74.6077 44.9503 74.422 44.2073 74.1124C44.0834 74.0505 43.9596 73.9886 43.8358 73.9267H43.7739C43.5881 73.8028 43.4024 73.7409 43.2166 73.6171C42.226 73.0599 41.2353 72.3788 40.3685 71.5739C39.9351 71.2024 39.5636 70.8309 39.1921 70.3975C39.6875 72.5645 40.5543 74.5458 41.7307 76.3414C41.8545 76.5271 41.9783 76.7129 42.1022 76.8986C42.1022 76.8986 42.1022 76.9605 42.1641 76.9605C43.7119 78.8799 46.0647 80.1801 48.7271 80.1801C49.2843 80.1801 49.8416 80.1182 50.3988 79.9944C50.4607 79.9944 50.4607 79.9944 50.5226 79.9944C50.5845 79.9944 50.6465 79.9944 50.7084 79.9325C50.7703 79.9325 50.7703 79.9325 50.8322 79.9325C50.8941 79.9325 51.0179 79.8705 51.0799 79.8705C53.1231 79.2514 54.6709 77.5797 55.1663 75.4746C55.2282 74.9792 55.2901 74.5458 55.2901 74.0505Z" fill="#FFFCFA"/>
</g>
<mask id="mask8_2152_672" style="mask-type:luminance" maskUnits="userSpaceOnUse" x="0" y="0" width="311" height="90">
<path d="M311 0H0V89.6532H311V0Z" fill="white"/>
</mask>
<g mask="url(#mask8_2152_672)">
<path d="M16.0977 74.0505C16.0977 71.8835 17.2121 70.026 18.8838 68.9115C19.6268 68.4162 20.4317 68.1066 21.3604 67.9828H21.4224C21.7939 67.9828 22.0415 68.2924 22.0415 68.602C22.0415 68.7877 21.9796 68.9735 21.7939 69.0973C21.1747 69.6545 20.7413 70.4594 20.7413 71.3882C20.7413 72.6265 21.4843 73.7409 22.5368 74.1743C22.6607 74.2363 22.7845 74.2982 22.9083 74.2982C23.5275 74.4839 24.1466 74.6077 24.7658 74.6077C25.6326 74.6077 26.4375 74.422 27.1805 74.1124C27.3043 74.0505 27.4281 73.9886 27.552 73.9267H27.6139C27.7996 73.8028 27.9854 73.7409 28.1711 73.6171C29.1618 73.0599 30.1524 72.3788 31.0192 71.5739C31.4526 71.2024 31.8241 70.8309 32.1956 70.3975C31.7003 72.5645 30.8335 74.5458 29.6571 76.3414C29.5333 76.5271 29.4094 76.7129 29.2856 76.8986C29.2856 76.8986 29.2856 76.9605 29.2237 76.9605C27.6758 78.8799 25.323 80.1801 22.6607 80.1801C22.1034 80.1801 21.5462 80.1182 20.989 79.9944C20.927 79.9944 20.927 79.9944 20.8651 79.9944C20.8032 79.9944 20.7413 79.9944 20.6794 79.9325C20.6175 79.9325 20.6175 79.9325 20.5556 79.9325C20.4936 79.9325 20.3698 79.8705 20.3079 79.8705C18.2647 79.2514 16.7168 77.5797 16.2215 75.4746C16.1596 74.9792 16.0977 74.5458 16.0977 74.0505Z" fill="#FFFCFA"/>
</g>
<mask id="mask9_2152_672" style="mask-type:luminance" maskUnits="userSpaceOnUse" x="0" y="0" width="311" height="90">
<path d="M311 0H0V89.6532H311V0Z" fill="white"/>
</mask>
<g mask="url(#mask9_2152_672)">
<path d="M34.92 59.0052C32.8148 54.9807 30.7097 51.0181 28.6046 46.9936C26.4376 42.9072 24.7659 38.6351 24.0229 33.9914C23.218 28.8525 23.7752 23.8373 25.6327 19.0079C27.3663 14.4262 29.7191 10.216 32.1338 5.94384C33.1863 4.1483 34.2389 2.35276 35.2914 0.557221C35.4153 0.371476 35.4772 0.247645 35.6629 -1.52588e-05C35.7868 0.18573 35.9106 0.371476 35.9725 0.495306C37.1489 2.47659 38.3872 4.39596 39.4398 6.37725C40.8638 8.91577 42.2259 11.4543 43.5881 14.0547C45.2598 17.3362 46.56 20.8035 47.2411 24.4565C47.7364 26.995 47.7983 29.5954 47.5507 32.1959C47.0553 37.954 44.8883 43.2168 42.1021 48.2319C39.997 52.0707 38.0157 55.9713 35.9725 59.8101C35.8487 60.0577 35.7249 60.3054 35.601 60.553C35.4772 59.9958 35.1676 59.4386 34.92 59.0052Z" fill="#FFFCFA"/>
</g>
<mask id="mask10_2152_672" style="mask-type:luminance" maskUnits="userSpaceOnUse" x="0" y="0" width="311" height="90">
<path d="M311 0H0V89.6532H311V0Z" fill="white"/>
</mask>
<g mask="url(#mask10_2152_672)">
<path d="M35.4153 89.2197C34.6723 87.9195 33.9912 86.6812 33.2483 85.381C32.5053 84.0808 31.948 82.7186 31.7004 81.2327C31.4527 79.6229 31.6385 78.0131 32.2576 76.4652C32.8149 74.9792 33.6197 73.679 34.4866 72.3169C34.8581 71.7597 35.2295 71.2024 35.5391 70.5833C35.601 70.5214 35.601 70.4594 35.6629 70.3975C35.7249 70.4594 35.7249 70.5214 35.7868 70.5833C36.1583 71.2024 36.5917 71.8216 36.9632 72.4407C37.4585 73.2456 37.8919 74.0505 38.3872 74.8554C38.9445 75.908 39.3779 77.0224 39.6255 78.1369C39.8113 78.9418 39.8113 79.7467 39.7494 80.6135C39.5636 82.471 38.8206 84.1427 37.8919 85.6906C37.2108 86.9289 36.5298 88.1672 35.7868 89.4055C35.7249 89.4674 35.7249 89.5912 35.6629 89.6532C35.601 89.5293 35.5391 89.3436 35.4153 89.2197Z" fill="#FFFCFA"/>
</g>
<mask id="mask11_2152_672" style="mask-type:luminance" maskUnits="userSpaceOnUse" x="0" y="0" width="311" height="90">
<path d="M311 0H0V89.6532H311V0Z" fill="white"/>
</mask>
<g mask="url(#mask11_2152_672)">
<path d="M71.2022 59.067C70.5211 63.2154 67.7349 66.4969 64.1438 68.0447C62.5959 68.7258 60.8623 69.0973 59.1287 69.0354C59.0668 69.0354 59.0668 69.0354 59.0049 69.0354C58.3238 68.9116 57.8285 68.2305 57.9523 67.5494C58.0142 67.1779 58.2619 66.8684 58.5715 66.6826C59.9955 65.8158 61.0481 64.3298 61.3576 62.5962C61.791 60.1815 60.6766 57.8287 58.7572 56.5904C58.5715 56.4666 58.3238 56.3428 58.0761 56.2189C57.0236 55.6617 55.7853 55.2283 54.547 55.0426C52.8753 54.733 51.2035 54.8568 49.6557 55.2283H49.5938C49.3461 55.2902 49.0984 55.3521 48.8508 55.414C48.7889 55.414 48.7889 55.414 48.7269 55.476C48.2935 55.5998 47.922 55.7236 47.4886 55.9094C45.3216 56.7143 43.2784 57.7049 41.2971 58.8813C40.3684 59.4385 39.5016 60.0577 38.6348 60.7388C40.2446 56.7143 42.6593 53.1232 45.5693 50.0893C45.8788 49.7798 46.1884 49.4702 46.498 49.1606C46.5599 49.1606 46.5599 49.0987 46.6218 49.0987C50.2129 45.8172 55.228 44.2074 60.4289 45.0742C61.5434 45.26 62.5959 45.5695 63.6485 45.941C63.7104 45.941 63.7723 46.0029 63.8342 46.0029C63.9581 46.0649 64.0819 46.1268 64.2057 46.1268C64.2677 46.1887 64.3296 46.1887 64.3915 46.1887C64.5153 46.2506 64.7011 46.3125 64.8249 46.3744C68.5398 48.2938 71.0783 52.0706 71.326 56.2809C71.3879 57.2096 71.3879 58.1383 71.2022 59.067Z" fill="#FFFCFA"/>
</g>
<mask id="mask12_2152_672" style="mask-type:luminance" maskUnits="userSpaceOnUse" x="0" y="0" width="311" height="90">
<path d="M311 0H0V89.6532H311V0Z" fill="white"/>
</mask>
<g mask="url(#mask12_2152_672)">
<path d="M0.18577 59.067C0.866838 63.2154 3.65302 66.4969 7.2441 68.0447C8.79198 68.7258 10.5256 69.0973 12.2592 69.0354C12.3211 69.0354 12.3211 69.0354 12.3831 69.0354C13.0641 68.9116 13.5595 68.2305 13.4356 67.5494C13.3737 67.1779 13.126 66.8684 12.8165 66.6826C11.3924 65.8158 10.3399 64.3298 10.0303 62.5962C9.59688 60.1815 10.7114 57.8287 12.6307 56.5904C12.8165 56.4666 13.0641 56.3428 13.3118 56.2189C14.3643 55.6617 15.6027 55.2283 16.841 55.0426C18.5127 54.733 20.1844 54.8568 21.7323 55.2283H21.7942C22.0418 55.2902 22.2895 55.3521 22.5372 55.414C22.5991 55.414 22.5991 55.414 22.661 55.476C23.0944 55.5998 23.4659 55.7236 23.8993 55.9094C26.0663 56.7143 28.1095 57.7049 30.0908 58.8813C31.0195 59.4385 31.8863 60.0577 32.7532 60.7388C31.1434 56.7143 28.7287 53.1232 25.8187 50.0893C25.5091 49.7798 25.1995 49.4702 24.8899 49.1606C24.828 49.1606 24.828 49.0987 24.7661 49.0987C21.175 45.8172 16.1599 44.2074 10.959 45.0742C9.84454 45.26 8.79198 45.5695 7.73942 45.941C7.67751 45.941 7.61559 46.0029 7.55368 46.0029C7.42985 46.0649 7.30602 46.1268 7.18219 46.1268C7.12027 46.1887 7.05836 46.1887 6.99644 46.1887C6.87261 46.2506 6.68687 46.3125 6.56304 46.3744C2.78621 48.2938 0.309601 52.0706 2.48365e-05 56.2809C-0.0618904 57.2096 2.48328e-05 58.1383 0.18577 59.067Z" fill="#FFFCFA"/>
</g>
</svg>
