<svg width="321" height="36" viewBox="0 0 321 36" fill="none" xmlns="http://www.w3.org/2000/svg">
<mask id="mask0_2152_727" style="mask-type:luminance" maskUnits="userSpaceOnUse" x="0" y="0" width="321" height="36">
<path d="M321 0H0V36H321V0Z" fill="white"/>
</mask>
<g mask="url(#mask0_2152_727)">
<path d="M321 33.7655C321 35.0069 320.012 36 318.715 36C317.417 36 316.429 35.0069 316.429 33.7655C316.429 32.5241 317.417 31.531 318.715 31.531C320.012 31.531 321 32.5241 321 33.7655ZM316.985 33.7655C316.985 34.7586 317.726 35.5655 318.715 35.5655C319.703 35.5655 320.382 34.7586 320.382 33.8276C320.382 32.8345 319.641 32.0276 318.653 32.0276C317.665 32.0276 316.985 32.7724 316.985 33.7655ZM318.344 34.9448H317.85V32.7103C318.035 32.6483 318.344 32.6483 318.715 32.6483C319.147 32.6483 319.332 32.7103 319.456 32.8345C319.579 32.9586 319.703 33.0828 319.703 33.331C319.703 33.5793 319.518 33.7655 319.27 33.8276C319.518 33.8897 319.579 34.0759 319.703 34.3862C319.765 34.6966 319.826 34.8828 319.888 34.9448H319.332C319.27 34.8828 319.209 34.6345 319.147 34.3862C319.085 34.1379 318.962 34.0138 318.715 34.0138H318.467V34.9448H318.344ZM318.406 33.7035H318.653C318.962 33.7035 319.147 33.5793 319.147 33.3931C319.147 33.2069 319.023 33.0828 318.653 33.0828C318.529 33.0828 318.406 33.0828 318.344 33.0828V33.7035H318.406Z" fill="white"/>
</g>
<mask id="mask1_2152_727" style="mask-type:luminance" maskUnits="userSpaceOnUse" x="0" y="0" width="321" height="36">
<path d="M321 0H0V36H321V0Z" fill="white"/>
</mask>
<g mask="url(#mask1_2152_727)">
<path d="M9.88264 1.73794C10.2532 0.68277 10.9327 0.186218 11.9827 0.186218H14.8857C15.9975 0.186218 16.6769 0.68277 16.924 1.73794L26.8066 35.069C26.9302 35.4414 26.7449 35.6276 26.3743 35.6276H23.8418C23.4712 35.6276 23.2859 35.5035 23.2242 35.1931L20.5065 26.069H6.42372L3.706 35.1931C3.58246 35.5035 3.39716 35.6276 3.08833 35.6276H0.432377C1.1811e-05 35.6276 -0.123521 35.4414 0.0617782 35.069L9.88264 1.73794ZM7.28845 23.0276H19.58L13.9592 3.84829C13.8357 3.47587 13.7122 3.35174 13.5886 3.35174H13.2798C13.0945 3.35174 12.9092 3.53794 12.8474 3.84829L7.28845 23.0276Z" fill="white"/>
</g>
<mask id="mask2_2152_727" style="mask-type:luminance" maskUnits="userSpaceOnUse" x="0" y="0" width="321" height="36">
<path d="M321 0H0V36H321V0Z" fill="white"/>
</mask>
<g mask="url(#mask2_2152_727)">
<path d="M62.6929 0.744839C62.6929 0.372425 62.8782 0.186218 63.2488 0.186218H65.6577C66.0283 0.186218 66.2136 0.372425 66.2136 0.744839V24.7655C66.2136 26.3173 66.4606 27.6207 66.893 28.6138C67.3254 29.669 67.943 30.4759 68.746 31.0345C69.5489 31.6552 70.5372 32.0897 71.7108 32.3379C72.8843 32.5862 74.1197 32.7104 75.5403 32.7104H75.9109C77.3315 32.7104 78.6286 32.5862 79.7404 32.3379C80.8522 32.0897 81.8405 31.6552 82.6434 31.0345C83.4464 30.4138 84.064 29.6069 84.4964 28.6138C84.9288 27.5586 85.1758 26.3173 85.1758 24.7655V0.744839C85.1758 0.372425 85.3611 0.186218 85.7317 0.186218H88.1406C88.5112 0.186218 88.6965 0.372425 88.6965 0.744839V24.7655C88.6965 26.9379 88.3877 28.7379 87.77 30.1655C87.1524 31.5931 86.2876 32.7104 85.2376 33.5793C84.1258 34.4483 82.8287 35.0069 81.2228 35.3793C79.6169 35.7517 77.8256 35.8759 75.9109 35.8759H75.5403C73.5638 35.8759 71.7725 35.6897 70.2284 35.3793C68.6224 35.0069 67.3253 34.4483 66.2136 33.5793C65.1018 32.7104 64.237 31.5931 63.6811 30.1655C63.0635 28.7379 62.7546 26.9379 62.7546 24.7655V0.744839H62.6929Z" fill="white"/>
</g>
<mask id="mask3_2152_727" style="mask-type:luminance" maskUnits="userSpaceOnUse" x="0" y="0" width="321" height="36">
<path d="M321 0H0V36H321V0Z" fill="white"/>
</mask>
<g mask="url(#mask3_2152_727)">
<path d="M128.042 35.069C128.042 35.4414 127.856 35.6276 127.486 35.6276H125.077C124.706 35.6276 124.521 35.4414 124.521 35.069V0.186218H138.789C142.063 0.186218 144.348 0.993115 145.707 2.66898C147.066 4.34484 147.807 6.76553 147.807 9.99311V10.9241C147.807 12.1655 147.684 13.2828 147.436 14.3379C147.189 15.3931 146.819 16.3242 146.325 17.131C145.769 17.9379 145.089 18.6207 144.225 19.2414C143.36 19.8 142.31 20.1724 141.013 20.3586L147.56 35.1931C147.684 35.5035 147.56 35.6276 147.251 35.6276H144.657C144.286 35.6276 144.101 35.5035 143.978 35.1931L137.801 20.8552H128.042V35.069ZM144.225 9.93105C144.225 7.75863 143.792 6.14484 142.866 5.0276C142.001 3.91036 140.395 3.35174 138.171 3.35174H127.98V18H138.171C140.457 18 142.001 17.3793 142.866 16.1379C143.73 14.8966 144.163 13.2207 144.163 11.0483V9.93105H144.225Z" fill="white"/>
</g>
<mask id="mask4_2152_727" style="mask-type:luminance" maskUnits="userSpaceOnUse" x="0" y="0" width="321" height="36">
<path d="M321 0H0V36H321V0Z" fill="white"/>
</mask>
<g mask="url(#mask4_2152_727)">
<path d="M183.631 0.744839C183.631 0.372425 183.817 0.186218 184.187 0.186218H186.596C186.967 0.186218 187.152 0.372425 187.152 0.744839V35.069C187.152 35.4414 186.967 35.6276 186.596 35.6276H184.187C183.817 35.6276 183.631 35.4414 183.631 35.069V0.744839Z" fill="white"/>
</g>
<mask id="mask5_2152_727" style="mask-type:luminance" maskUnits="userSpaceOnUse" x="0" y="0" width="321" height="36">
<path d="M321 0H0V36H321V0Z" fill="white"/>
</mask>
<g mask="url(#mask5_2152_727)">
<path d="M232.921 1.73794C233.292 0.68277 233.971 0.186218 235.021 0.186218H237.924C239.036 0.186218 239.715 0.68277 239.962 1.73794L249.845 35.069C249.969 35.4414 249.783 35.6276 249.413 35.6276H246.88C246.51 35.6276 246.263 35.5035 246.263 35.1931L243.483 26.069H229.4L226.683 35.1931C226.559 35.5035 226.374 35.6276 226.065 35.6276H223.471C223.038 35.6276 222.915 35.4414 223.1 35.069L232.921 1.73794ZM230.265 23.0276H242.557L236.936 3.84829C236.812 3.47587 236.689 3.35174 236.565 3.35174H236.256C236.071 3.35174 235.886 3.53794 235.824 3.84829L230.265 23.0276Z" fill="white"/>
</g>
<mask id="mask6_2152_727" style="mask-type:luminance" maskUnits="userSpaceOnUse" x="0" y="0" width="321" height="36">
<path d="M321 0H0V36H321V0Z" fill="white"/>
</mask>
<g mask="url(#mask6_2152_727)">
<path d="M311.735 35.069C311.735 35.5034 311.55 35.6897 311.179 35.6897H308.77C308.4 35.6897 308.214 35.5034 308.214 35.069V11.1103C308.214 9.49655 307.967 8.1931 307.535 7.2C307.103 6.14483 306.485 5.33793 305.682 4.77931C304.879 4.22069 303.953 3.78621 302.779 3.53793C301.667 3.28965 300.37 3.16552 298.949 3.16552H298.455C297.035 3.16552 295.738 3.28965 294.626 3.53793C293.514 3.78621 292.526 4.22069 291.723 4.77931C290.92 5.33793 290.302 6.14483 289.87 7.2C289.437 8.25517 289.19 9.55862 289.19 11.1103V35.069C289.19 35.5034 289.005 35.6897 288.634 35.6897H286.226C285.855 35.6897 285.67 35.5034 285.67 35.069V11.0483C285.67 8.87586 285.979 7.07586 286.596 5.71034C287.214 4.28276 288.079 3.16552 289.129 2.29655C290.24 1.42759 291.537 0.868966 293.143 0.496552C294.688 0.124138 296.479 0 298.455 0H298.949C300.926 0 302.655 0.186207 304.261 0.496552C305.806 0.868966 307.164 1.42759 308.276 2.29655C309.388 3.16552 310.253 4.28276 310.809 5.71034C311.365 7.13793 311.673 8.87586 311.673 11.0483V35.069H311.735Z" fill="white"/>
</g>
</svg>
