<svg width="265" height="120" viewBox="0 0 265 120" fill="none" xmlns="http://www.w3.org/2000/svg">
<path d="M0.199951 0H55.7C89.6 0 106.5 11.7 106.5 35.2C106.5 44.5 103.7 52 98.2 57.7C107.1 63.7 111.6 72.6 111.6 84.6C111.6 107.9 94.6999 119.6 60.7999 119.6H0.199951V0ZM22.3999 20.7V49.3H61.5999C69.5999 49.3 75.2999 48.1 78.7999 45.8C82.2999 43.5 84.0999 39.9 84.0999 35.1C84.0999 30.2 82.2999 26.5 78.7999 24.2C75.2999 21.9 69.4999 20.7 61.5999 20.7H22.3999ZM66.7 98.8C74.7 98.8 80.3999 97.6 83.8999 95.3C87.3999 93 89.2 89.4 89.2 84.6C89.2 79.7 87.3999 76 83.8999 73.7C80.3999 71.4 74.6 70.2 66.7 70.2H22.3999V98.8H66.7Z" fill="black"/>
<path d="M182.2 49.3L234.5 0H204.3L148.5 52.3V0H127.5V119.5H148.5V80.7L166.7 63.7L208.6 119.5H235L182.2 49.3Z" fill="black"/>
<path d="M264.7 112.1C264.7 116.3 261.4 119.6 257.1 119.6C252.9 119.6 249.5 116.3 249.5 112.1C249.5 108 252.9 104.7 257.1 104.7C261.5 104.7 264.7 108 264.7 112.1ZM251.5 112.1C251.5 115.4 253.9 118 257.3 118C260.5 118 262.9 115.4 262.9 112.2C262.9 108.9 260.5 106.3 257.2 106.3C253.9 106.2 251.5 108.8 251.5 112.1ZM256 115.9H254.3V108.5C255 108.4 255.9 108.3 257.1 108.3C258.5 108.3 259.1 108.5 259.7 108.8C260.1 109.1 260.4 109.7 260.4 110.4C260.4 111.2 259.8 111.8 258.9 112.1V112.2C259.6 112.5 260 113 260.2 114C260.4 115.1 260.6 115.6 260.7 115.8H258.9C258.7 115.5 258.5 114.9 258.3 114C258.2 113.2 257.7 112.8 256.8 112.8H256V115.9ZM256.1 111.7H256.9C257.8 111.7 258.6 111.4 258.6 110.6C258.6 109.9 258.1 109.5 257 109.5C256.6 109.5 256.2 109.5 256.1 109.6V111.7Z" fill="black"/>
</svg>
