<svg width="631" height="179" viewBox="0 0 631 179" fill="none" xmlns="http://www.w3.org/2000/svg">
<path d="M15.6 178.2C5.5 178.2 0.5 174.6 0.5 167.3C0.5 163.2 2.1 160.3 5.4 158.6C3.9 156.7 3.2 154.4 3.2 151.8C3.2 144.9 8.1 141.1 15.7 141.1C23.4 141.1 28.3 145 28.3 151.8H21.6C21.6 149 19.1 147.4 15.7 147.4C12.3 147.4 9.9 149 9.9 151.8C9.9 153.4 11 155.1 13 156.5L24.3 164.6V159.3H30.9V167.3C30.9 168 30.8 168.6 30.8 169.2L34.6 171.9L31 177.3L27.7 175C25 177.1 21.1 178.2 15.6 178.2ZM15.6 171.8C18.2 171.8 20.2 171.5 21.7 170.8L11.1 163.3C8.4 163.9 7.1 165.3 7.1 167.3C7.1 170.3 10 171.8 15.6 171.8Z" fill="#19354A"/>
<path d="M56.5 141C63.1 141 68.1 143.3 71.1 147.6L65.6 151.4C63.8 148.7 60.8 147.3 56.6 147.3C49.2 147.3 45.6 151.4 45.6 159.5C45.6 167.6 49.3 171.7 56.6 171.7C60.8 171.7 63.9 170.3 65.6 167.6L71.1 171.4C68.1 175.7 63.2 178 56.5 178C45.2 178 38.8 171.3 38.8 159.4C38.9 147.7 45.2 141 56.5 141Z" fill="#19354A"/>
<path d="M76.1 159.6C76.1 147.7 82.5 141 93.8 141C105.1 141 111.5 147.7 111.5 159.6C111.5 171.5 105.1 178.2 93.8 178.2C82.4 178.2 76.1 171.5 76.1 159.6ZM93.7 171.8C101.1 171.8 104.7 167.7 104.7 159.6C104.7 151.5 101 147.4 93.7 147.4C86.3 147.4 82.7 151.5 82.7 159.6C82.7 167.8 86.4 171.8 93.7 171.8Z" fill="#19354A"/>
<path d="M0 0H55.5C89.4 0 106.3 11.7 106.3 35.2C106.3 44.5 103.5 52 98 57.7C106.9 63.7 111.4 72.6 111.4 84.6C111.4 107.9 94.5 119.6 60.6 119.6H0V0ZM22.1 20.7V49.3H61.3C69.3 49.3 75 48.1 78.5 45.8C82 43.5 83.8 39.9 83.8 35.1C83.8 30.2 82 26.5 78.5 24.2C75 21.9 69.2 20.7 61.3 20.7H22.1ZM66.4 98.8C74.4 98.8 80.1 97.6 83.6 95.3C87.1 93 88.9 89.4 88.9 84.6C88.9 79.7 87.1 76 83.6 73.7C80.1 71.4 74.3 70.2 66.4 70.2H22.1V98.8H66.4Z" fill="#19354A"/>
<path d="M154.6 119.5L209.4 0H237.9L292.7 119.5H268.4L256.4 93.7H190.7L178.7 119.5H154.6ZM247 72.9L223.6 21.9L200.2 72.9H247Z" fill="#19354A"/>
<path d="M438.4 0V20.7H363V49.4H421.3V70.1H363L362.8 98.8H438.4V119.5H340.8V0H438.4Z" fill="#19354A"/>
<path d="M630.2 111.9C630.2 116.1 626.9 119.4 622.6 119.4C618.4 119.4 615 116.1 615 111.9C615 107.8 618.4 104.5 622.6 104.5C626.9 104.5 630.2 107.8 630.2 111.9ZM617 111.9C617 115.2 619.4 117.8 622.8 117.8C626 117.8 628.4 115.2 628.4 112C628.4 108.7 626 106.1 622.7 106.1C619.4 106 617 108.7 617 111.9ZM621.5 115.8H619.8V108.4C620.5 108.3 621.4 108.2 622.6 108.2C624 108.2 624.6 108.4 625.2 108.7C625.6 109 625.9 109.6 625.9 110.3C625.9 111.1 625.3 111.7 624.4 112V112.1C625.1 112.4 625.5 112.9 625.7 113.9C625.9 115 626.1 115.5 626.2 115.7H624.4C624.2 115.4 624 114.8 623.8 113.9C623.7 113.1 623.2 112.7 622.3 112.7H621.5V115.8ZM621.5 111.6H622.3C623.2 111.6 624 111.3 624 110.5C624 109.8 623.5 109.4 622.4 109.4C622 109.4 621.6 109.4 621.5 109.5V111.6Z" fill="#19354A"/>
<path d="M547.4 49.3L599.7 0H569.5L513.7 52.3V0H492.7V119.5H513.7V80.7L531.9 63.7L573.8 119.5H600.2L547.4 49.3Z" fill="#19354A"/>
</svg>
